<?xml version="1.0" encoding="utf-8"?>
<!-- Generator: Adobe Illustrator 21.1.0, SVG Export Plug-In . SVG Version: 6.00 Build 0)  -->
<svg version="1.1" id="Layer_1" xmlns="http://www.w3.org/2000/svg" xmlns:xlink="http://www.w3.org/1999/xlink" x="0px" y="0px"
	 viewBox="0 0 194 66" style="enable-background:new 0 0 194 66;" xml:space="preserve">
<style type="text/css">
	.st0{fill:#FFFFFF;}
	.st1{enable-background:new    ;}
</style>
<g>
	<g>
		<rect x="183.7" y="0.8" class="st0" width="10.3" height="33.4"/>
		<path class="st0" d="M40.5,1.1h9.8l0.4,4.2c0.9-1.1,2-2.2,3.5-3.3c1.5-1,3.4-1.6,5.8-1.6c0.9,0,1.7,0,2.3,0.1s1.3,0.3,1.9,0.5
			l-1.6,9c-1-0.3-2.3-0.5-3.7-0.5c-2.4,0-4.4,0.7-5.9,2.2c-1.5,1.4-2.2,3.5-2.2,6.2v16.5H40.5V1.1z"/>
		<path class="st0" d="M83.9,26.8c1.3,0,2.4-0.2,3.4-0.7s1.8-1.2,2.5-2c0.7-0.9,1.2-1.8,1.5-2.9s0.5-2.2,0.5-3.3
			c0-1.1-0.2-2.2-0.5-3.3s-0.8-2-1.5-2.8s-1.5-1.5-2.5-2s-2.1-0.7-3.4-0.7s-2.4,0.3-3.5,0.7c-1,0.5-1.9,1.2-2.5,2
			c-0.7,0.8-1.2,1.8-1.5,2.8c-0.4,1.1-0.5,2.2-0.5,3.3s0.2,2.2,0.5,3.3c0.4,1.1,0.9,2,1.5,2.9c0.7,0.9,1.5,1.5,2.5,2
			C81.4,26.5,82.6,26.8,83.9,26.8 M65.9,17.8c0-2.5,0.4-4.8,1.3-6.9c0.9-2.2,2.1-4,3.7-5.7c1.6-1.6,3.5-2.9,5.7-3.8
			C78.8,0.5,81.2,0,83.9,0s5.1,0.5,7.3,1.4c2.2,0.9,4.1,2.2,5.6,3.8c1.6,1.6,2.8,3.5,3.7,5.7c0.9,2.2,1.3,4.5,1.3,6.9
			c0,2.5-0.4,4.8-1.3,6.9c-0.9,2.2-2.1,4-3.7,5.7c-1.6,1.6-3.4,2.9-5.6,3.8c-2.2,0.9-4.6,1.4-7.3,1.4s-5.1-0.5-7.3-1.4
			c-2.2-0.9-4.1-2.2-5.7-3.8c-1.6-1.6-2.8-3.5-3.7-5.7C66.4,22.6,65.9,20.3,65.9,17.8"/>
		<path class="st0" d="M167.8,18.9L167.8,18.9c-0.1-0.1-0.1-0.1-0.2-0.2l-0.2-0.3c-0.2-0.4-0.4-0.8-0.4-1.3s0.1-0.9,0.4-1.3l0.2-0.3
			c0.1-0.1,0.1-0.1,0.2-0.2l0,0l10.4-14.1H167l-6.1,8.9l-6-8.9h-12.2l11.4,15.6c0.2,0.3,0.2,0.7,0.2,1.1s-0.1,0.8-0.3,1.2
			l-11.5,15.6h11.2l6.7-9.6l6.6,9.6h12.2L167.8,18.9z"/>
		<path class="st0" d="M127.7,18.9L127.7,18.9c-0.1-0.1-0.1-0.2-0.2-0.2l-0.2-0.2c-0.2-0.4-0.4-0.8-0.4-1.3s0.1-0.9,0.4-1.3l0.2-0.3
			c0.1-0.1,0.1-0.1,0.2-0.2l0,0l10.4-14.1h-11.2l-6.1,8.9l-6-8.9h-12.2L113.4,16v0.1c0.5,0.5,0.8,1.1,0.8,1.8c0,0.4-0.1,0.8-0.3,1.1
			l-11.5,15.5h11.2l6.7-9.6l6.6,9.6h12.2L127.7,18.9z"/>
		<path class="st0" d="M22.3,24.5c-1.4,1.7-3.4,2.5-5.9,2.5c-2.6,0-4.6-0.5-5.9-1.4v-8.9c0-0.9,0.2-1.9,0.5-2.8
			c0.3-0.9,0.8-1.7,1.4-2.4c0.6-0.7,1.3-1.3,2.2-1.7s1.9-0.6,3-0.6c1.3,0,2.4,0.2,3.2,0.7c0.9,0.5,1.6,1.1,2.1,1.9
			c0.5,0.8,1,1.7,1.2,2.7c0.3,1,0.4,2.1,0.4,3.2C24.5,20.6,23.8,22.8,22.3,24.5 M33.8,11.2c-0.6-2.1-1.5-3.9-2.8-5.5
			c-1.2-1.6-2.8-2.9-4.6-3.8c-1.9-0.9-4-1.4-6.4-1.4c-1.9,0-3.6,0.4-5.3,1.1s-3.1,1.8-4.2,3.2c0-0.6-0.1-1.2-0.1-1.8
			s-0.1-1.2-0.2-1.8H0.3v47.6h8.4l0,0c1-0.1,1.7-0.9,1.8-1.9V34.3c0.9,0.3,1.8,0.6,2.8,0.9c1,0.3,2.4,0.4,4,0.4c2,0,4.1-0.4,6.2-1.1
			c2.1-0.7,4-1.8,5.6-3.3c1.7-1.5,3-3.3,4.1-5.6c1-2.3,1.6-5,1.6-8C34.8,15.4,34.5,13.3,33.8,11.2"/>
	</g>
</g>
<g class="st1">
	<path class="st0" d="M72.2,62.2l-0.1-1h-0.1c-0.5,0.6-1.3,1.2-2.5,1.2c-1.7,0-2.5-1.2-2.5-2.4c0-2,1.8-3.1,5-3.1v-0.2
		c0-0.7-0.2-1.9-1.9-1.9c-0.8,0-1.6,0.2-2.1,0.6l-0.3-1c0.7-0.4,1.7-0.7,2.7-0.7c2.5,0,3.1,1.7,3.1,3.4v3.1c0,0.7,0,1.4,0.1,2H72.2z
		 M72,58c-1.6,0-3.5,0.3-3.5,1.9c0,1,0.6,1.4,1.4,1.4c1.1,0,1.8-0.7,2-1.4c0.1-0.2,0.1-0.3,0.1-0.5V58z"/>
	<path class="st0" d="M75.9,56.2c0-0.9,0-1.6-0.1-2.2h1.3l0.1,1.4h0c0.4-0.8,1.4-1.6,2.7-1.6c1.1,0,2.9,0.7,2.9,3.5v4.9h-1.5v-4.8
		c0-1.3-0.5-2.4-1.9-2.4c-1,0-1.8,0.7-2,1.5c-0.1,0.2-0.1,0.4-0.1,0.7v5h-1.5V56.2z"/>
	<path class="st0" d="M90.5,50.7v11.5H89V50.7H90.5z"/>
	<path class="st0" d="M93.1,50.9c0.6-0.1,1.7-0.2,2.7-0.2c1.5,0,2.4,0.3,3.2,0.8c0.6,0.4,1,1.1,1,2c0,1.1-0.7,2.1-1.9,2.5v0
		c1.1,0.3,2.4,1.2,2.4,2.9c0,1-0.4,1.7-1,2.3c-0.8,0.7-2.1,1.1-4,1.1c-1,0-1.8-0.1-2.3-0.1V50.9z M94.6,55.6h1.3
		c1.6,0,2.5-0.8,2.5-1.9c0-1.3-1-1.9-2.5-1.9c-0.7,0-1.1,0.1-1.3,0.1V55.6z M94.6,61.1c0.3,0.1,0.7,0.1,1.2,0.1c1.5,0,3-0.6,3-2.2
		c0-1.6-1.3-2.2-3-2.2h-1.2V61.1z"/>
	<path class="st0" d="M112,57.2c-0.1-1.6-0.2-3.5-0.2-5h-0.1c-0.4,1.3-0.9,2.8-1.5,4.4l-2,5.6h-1.1l-1.9-5.5c-0.5-1.6-1-3.1-1.3-4.5
		h0c0,1.4-0.1,3.4-0.2,5.1l-0.3,4.9H102l0.8-11.5h1.9l2,5.6c0.5,1.4,0.9,2.7,1.2,3.9h0.1c0.3-1.2,0.7-2.4,1.2-3.9l2-5.6h1.9
		l0.7,11.5h-1.4L112,57.2z"/>
	<path class="st0" d="M121.2,53.3c0,1.6-1.2,2.8-2.9,2.8c-1.6,0-2.9-1.2-2.9-2.8c0-1.6,1.3-2.8,2.9-2.8
		C120,50.5,121.2,51.8,121.2,53.3z M116.2,53.3c0,1.2,0.9,2.2,2.2,2.2c1.2,0,2.1-1,2.1-2.2c0-1.2-0.9-2.3-2.1-2.3
		S116.2,52.1,116.2,53.3z M117.9,54.8h-0.6V52c0.3-0.1,0.6-0.1,1.1-0.1c0.5,0,0.8,0.1,1,0.2c0.2,0.1,0.3,0.3,0.3,0.6
		c0,0.3-0.2,0.5-0.6,0.6v0c0.3,0.1,0.4,0.3,0.5,0.7c0.1,0.4,0.1,0.6,0.2,0.7H119c-0.1-0.1-0.1-0.4-0.2-0.7c-0.1-0.3-0.2-0.4-0.6-0.4
		h-0.3V54.8z M117.9,53.2h0.3c0.4,0,0.6-0.1,0.6-0.4c0-0.3-0.2-0.4-0.6-0.4c-0.2,0-0.3,0-0.4,0V53.2z"/>
	<path class="st0" d="M134.8,61.8c-0.5,0.3-1.6,0.5-3,0.5c-3.2,0-5.7-2-5.7-5.8c0-3.6,2.4-6,6-6c1.4,0,2.3,0.3,2.7,0.5l-0.4,1.2
		c-0.6-0.3-1.4-0.5-2.3-0.5c-2.7,0-4.5,1.7-4.5,4.7c0,2.8,1.6,4.6,4.4,4.6c0.9,0,1.8-0.2,2.4-0.5L134.8,61.8z"/>
	<path class="st0" d="M143.9,58c0,3.1-2.1,4.4-4.1,4.4c-2.2,0-4-1.6-4-4.2c0-2.8,1.8-4.4,4.1-4.4C142.3,53.8,143.9,55.5,143.9,58z
		 M137.4,58.1c0,1.8,1,3.2,2.5,3.2c1.4,0,2.5-1.3,2.5-3.2c0-1.4-0.7-3.2-2.5-3.2S137.4,56.5,137.4,58.1z"/>
	<path class="st0" d="M145.8,56.2c0-0.9,0-1.6-0.1-2.2h1.3l0.1,1.3h0.1c0.5-0.8,1.2-1.5,2.6-1.5c1.1,0,2,0.7,2.3,1.7h0
		c0.3-0.5,0.6-0.8,0.9-1.1c0.5-0.4,1-0.6,1.8-0.6c1.1,0,2.7,0.7,2.7,3.6v4.9h-1.5v-4.7c0-1.6-0.6-2.5-1.8-2.5
		c-0.9,0-1.5,0.6-1.8,1.4c-0.1,0.2-0.1,0.5-0.1,0.8v5.1H151v-4.9c0-1.3-0.6-2.3-1.7-2.3c-0.9,0-1.6,0.8-1.9,1.5
		c-0.1,0.2-0.1,0.5-0.1,0.7v5h-1.5V56.2z"/>
	<path class="st0" d="M160,56.6c0-1.1,0-1.9-0.1-2.7h1.3l0.1,1.4h0c0.6-1,1.6-1.6,2.9-1.6c2,0,3.5,1.7,3.5,4.2c0,3-1.8,4.4-3.8,4.4
		c-1.1,0-2-0.5-2.5-1.3h0v4.5H160V56.6z M161.5,58.8c0,0.2,0,0.4,0.1,0.6c0.3,1,1.2,1.8,2.3,1.8c1.6,0,2.5-1.3,2.5-3.2
		c0-1.7-0.9-3.1-2.5-3.1c-1,0-2,0.7-2.3,1.9c-0.1,0.2-0.1,0.4-0.1,0.6V58.8z"/>
	<path class="st0" d="M174.3,62.2l-0.1-1h-0.1c-0.5,0.6-1.3,1.2-2.5,1.2c-1.7,0-2.5-1.2-2.5-2.4c0-2,1.8-3.1,5-3.1v-0.2
		c0-0.7-0.2-1.9-1.9-1.9c-0.8,0-1.6,0.2-2.1,0.6l-0.3-1c0.7-0.4,1.7-0.7,2.7-0.7c2.5,0,3.1,1.7,3.1,3.4v3.1c0,0.7,0,1.4,0.1,2H174.3
		z M174.1,58c-1.6,0-3.5,0.3-3.5,1.9c0,1,0.6,1.4,1.4,1.4c1.1,0,1.8-0.7,2-1.4c0.1-0.2,0.1-0.3,0.1-0.5V58z"/>
	<path class="st0" d="M178,56.2c0-0.9,0-1.6-0.1-2.2h1.3l0.1,1.4h0c0.4-0.8,1.4-1.6,2.7-1.6c1.1,0,2.9,0.7,2.9,3.5v4.9h-1.5v-4.8
		c0-1.3-0.5-2.4-1.9-2.4c-1,0-1.8,0.7-2,1.5c-0.1,0.2-0.1,0.4-0.1,0.7v5H178V56.2z"/>
	<path class="st0" d="M187.8,53.9l1.8,4.9c0.2,0.5,0.4,1.2,0.5,1.7h0c0.2-0.5,0.3-1.1,0.5-1.7l1.6-4.8h1.6l-2.3,5.9
		c-1.1,2.8-1.8,4.3-2.8,5.2c-0.7,0.6-1.5,0.9-1.8,1l-0.4-1.3c0.4-0.1,0.9-0.4,1.3-0.7c0.4-0.3,0.9-0.9,1.3-1.7
		c0.1-0.2,0.1-0.3,0.1-0.4s0-0.2-0.1-0.4l-3.1-7.6H187.8z"/>
</g>
</svg>
