<svg xmlns="http://www.w3.org/2000/svg" id="Assinaturas" viewBox="0 0 1037.69 354.08"><defs><style>      .cls-1 {        fill: #ded4d4;      }    </style></defs><path class="cls-1" d="M672.83,8.37l-55.26,55.26c-2.86,2.86-4.47,6.75-4.47,10.8v120.88c0,45.55-37.6,82.49-83.39,81.4-44.45-1.05-79.46-38.47-79.46-82.93V12.99c0-5.83-7.05-8.75-11.17-4.63l-55.26,55.26c-2.86,2.86-4.47,6.75-4.47,10.8v120.88c0,84.79,69.63,153.62,154.71,152.32,83.59-1.28,149.97-71.03,149.97-154.63V12.99c0-5.83-7.05-8.75-11.17-4.63ZM922.66,12.17h-112.38c-3.48,0-6.81,1.38-9.27,3.84l-63.1,63.24c-2.45,2.45-3.82,5.78-3.82,9.25v238.7c0,6.03,4.88,10.91,10.91,10.91h49.09c6.03,0,10.91-4.88,10.91-10.91V80.63c0-1.66,1.34-3,3-3h115.76c23.73,0,43.85,18.3,45.12,42,1.38,25.61-19.06,46.89-44.38,46.89h-31.14c-4.05,0-7.94,1.61-10.8,4.47l-49.81,49.81c-4.12,4.12-1.2,11.17,4.63,11.17h87.12c61.31,0,111.05-50.46,109.88-112.03-1.14-60.17-51.55-107.78-111.72-107.78ZM343.1,269.96H110.26c-2.48,0-3.89-2.84-2.39-4.82l65.17-85.47c1.41-1.86.09-4.53-2.24-4.53h-77.34c-3.67,0-7.13,1.76-9.29,4.73L10.86,280.56c-1.96,2.7-3.02,5.94-3.02,9.28v37.36c0,6.03,4.88,10.91,10.91,10.91h278.67c4.81,0,9.33-2.26,12.22-6.11l38.7-51.57c3.24-4.31.16-10.47-5.24-10.47ZM245.08,85.14l-65.17,85.47c-1.42,1.86-.09,4.53,2.24,4.53h77.34c3.68,0,7.13-1.76,9.29-4.73l73.3-100.69c1.96-2.7,3.02-5.95,3.02-9.28V23.08c0-6.03-4.88-10.91-10.91-10.91H55.52c-4.81,0-9.33,2.26-12.22,6.11L4.61,69.85c-3.24,4.31-.16,10.47,5.24,10.47h232.84c2.48,0,3.89,2.84,2.39,4.82Z"></path></svg>