<svg xmlns="http://www.w3.org/2000/svg" viewBox="0 0 512 512" role="img" aria-labelledby="title desc">
  <title id="title">Logotipo Flow Ishida sobre fundo escuro</title>
  <desc id="desc">Marca em forma de S com degradê azul esverdeado sobre fundo azul escuro com texto Flow Ishida em branco.</desc>
  <rect width="512" height="512" fill="#071526" rx="48"/>
  <defs>
    <linearGradient id="swirlGradientDark" x1="0%" y1="0%" x2="100%" y2="100%">
      <stop offset="0%" stop-color="#25d0c0"/>
      <stop offset="100%" stop-color="#03a6b3"/>
    </linearGradient>
  </defs>
  <g transform="translate(166 86)">
    <path d="M129.9 0c-47.6 0-86.3 38.7-86.3 86.3 0 26.6 12.1 45.2 32.5 59.1 22.6 15.3 35.1 20.8 35.1 32.6 0 11.1-9.3 18.1-27.8 27.2-30.3 15.1-51.7 39-51.7 75.6 0 47.6 38.7 86.3 86.3 86.3 34.3 0 64.7-20.1 78.8-51.5 4.6-10.3.2-22.5-10.1-27.1-10.3-4.6-22.5-.2-27.1 10.1-7.3 16.5-24 27.1-41.6 27.1-25.3 0-45.9-20.6-45.9-45.9 0-20.1 13.3-30.5 33.3-40.2 28.3-13.9 46.3-28.9 46.3-62.2 0-29.2-18.8-50-39.7-64.1-18.8-12.7-27.9-20.5-27.9-37.1 0-25.3 20.6-45.9 45.9-45.9 19.5 0 36.7 12 43.3 30.4 3.8 10.7 15.5 16.2 26.2 12.4 10.7-3.8 16.2-15.5 12.4-26.2C213.8 25.1 174.8 0 129.9 0z" fill="url(#swirlGradientDark)"/>
  </g>
  <text x="256" y="426" font-family="'Poppins', 'Helvetica Neue', Arial, sans-serif" font-size="64" font-weight="600" fill="#ffffff" text-anchor="middle">Flow Ishida</text>
</svg>
